<?xml version="1.0" encoding="utf-8"?>
<!-- Generator: Adobe Illustrator 21.0.0, SVG Export Plug-In . SVG Version: 6.00 Build 0)  -->
<svg version="1.1" id="Layer_1" xmlns="http://www.w3.org/2000/svg" xmlns:xlink="http://www.w3.org/1999/xlink" x="0px" y="0px"
	 viewBox="0 0 40 28" style="enable-background:new 0 0 40 28;" xml:space="preserve">
<style type="text/css">
	.st0{fill:#FFFFFF;}
	.st1{fill-rule:evenodd;clip-rule:evenodd;fill:#EC1E25;}
	.st2{fill-rule:evenodd;clip-rule:evenodd;fill:#2754A4;}
	.st3{fill-rule:evenodd;clip-rule:evenodd;fill:#231F20;}
</style>
<g>
	<rect class="st0" width="40" height="28"/>
	<g>
		<path class="st1" d="M18.4,8.2c-0.6,0.2-1.2,0.5-1.7,0.8c-0.5,0.4-1,0.8-1.4,1.3c-0.4,0.5-0.7,1-0.9,1.6c-0.2,0.6-0.3,1.2-0.4,1.8
			c0,0.6,0.1,1.3,0.2,1.9c0.2,0.6,0.5,1.2,0.8,1.8c0.4,0.5,0.8,1,1.3,1.4c0.5,0.4,1,0.7,1.6,0.9c0.6,0.2,1.2,0.3,1.8,0.4
			c0.6,0,1.3,0,1.9-0.2c0.6-0.2,1.2-0.5,1.7-0.8c0.5-0.4,1-0.8,1.4-1.3c0.4-0.5,0.7-1,0.9-1.6c0.2-0.6,0.3-1.2,0.4-1.8
			c0-0.6-0.1-1.3-0.2-1.9c-0.2-0.6-0.5-1.2-0.8-1.8c-0.4-0.5-0.8-1-1.3-1.4c-0.5-0.4-1-0.7-1.6-0.9C21.5,8.1,20.9,8,20.2,8
			C19.6,7.9,19,8,18.4,8.2L18.4,8.2z"/>
		<path class="st2" d="M14.1,12.6C14,13,14,13.3,14,13.7c0,0.6,0.1,1.3,0.2,1.9c0.2,0.6,0.5,1.2,0.8,1.8c0.4,0.5,0.8,1,1.3,1.4
			c0.5,0.4,1,0.7,1.6,0.9c0.6,0.2,1.2,0.3,1.8,0.4c0.6,0,1.3,0,1.9-0.2c0.6-0.2,1.2-0.5,1.7-0.8c0.5-0.4,1-0.8,1.4-1.3
			c0.4-0.5,0.7-1,0.9-1.6c0,0,0-0.1,0-0.2c0,0,0,0,0,0c0.1-0.2,0.1-0.4,0.1-0.6c0-0.3,0-0.5,0-0.8c0-0.2-0.1-0.5-0.2-0.7
			c-0.1-0.1-0.1-0.2-0.2-0.3c-0.1-0.1-0.1-0.2-0.2-0.3c-0.1-0.1-0.2-0.2-0.3-0.3c-0.1-0.1-0.2-0.2-0.3-0.3c-0.1-0.1-0.2-0.1-0.3-0.2
			c-0.1-0.1-0.2-0.1-0.4-0.2c-0.2-0.1-0.5-0.1-0.7-0.2c-0.3-0.1-0.5,0-0.8,0c-0.2,0-0.5,0.1-0.7,0.2c-0.1,0-0.2,0.1-0.4,0.2
			c-0.1,0.1-0.2,0.1-0.3,0.2c-0.1,0.1-0.2,0.2-0.3,0.3c-0.1,0.1-0.2,0.2-0.3,0.3c-0.1,0.2-0.2,0.4-0.3,0.6c-0.1,0.2-0.2,0.5-0.3,0.6
			c-0.1,0.2-0.2,0.3-0.2,0.4c-0.1,0.1-0.2,0.2-0.3,0.3c-0.1,0.1-0.2,0.2-0.3,0.3c-0.1,0.1-0.2,0.1-0.3,0.2c-0.1,0.1-0.2,0.1-0.4,0.2
			c-0.2,0.1-0.5,0.2-0.7,0.2c-0.3,0-0.5,0-0.8,0c-0.3,0-0.5-0.1-0.8-0.2c-0.1,0-0.2-0.1-0.3-0.2c-0.1-0.1-0.2-0.1-0.3-0.2
			c-0.1-0.1-0.2-0.1-0.3-0.2C15,15,14.9,15,14.8,14.8c-0.1-0.1-0.2-0.2-0.2-0.3c-0.1-0.1-0.1-0.2-0.2-0.3c-0.1-0.2-0.2-0.5-0.2-0.7
			C14.2,13.2,14.1,12.9,14.1,12.6C14.2,12.7,14.1,12.6,14.1,12.6L14.1,12.6z"/>
	</g>
	<g>
		<polygon class="st3" points="13.1,5.5 9.6,11 8.7,10.5 12.3,5 13.1,5.5 		"/>
		<polygon class="st3" points="9.7,24.7 6.2,19.2 7.1,18.6 10.6,24.1 9.7,24.7 		"/>
		<polygon class="st3" points="28.1,4.7 31.7,10.2 32.6,9.6 29,4.1 28.1,4.7 		"/>
		<polygon class="st3" points="11,4.1 7.4,9.6 8.3,10.2 11.9,4.7 11,4.1 		"/>
		<polygon class="st3" points="30.4,11 31.3,10.4 29.7,7.9 28.8,8.5 30.4,11 		"/>
		<polygon class="st3" points="33.8,19.2 32.9,18.6 31.2,21.2 32.1,21.7 33.8,19.2 		"/>
		<polygon class="st3" points="11,23.9 11.9,23.3 10.2,20.8 9.3,21.4 11,23.9 		"/>
		<polygon class="st3" points="33,9.4 33.8,8.8 32.2,6.3 31.3,6.8 33,9.4 		"/>
		<polygon class="st3" points="31.2,17.6 30.3,17 28.7,19.5 29.6,20.1 31.2,17.6 		"/>
		<polygon class="st3" points="32.5,18.4 31.6,17.8 29.9,20.4 30.8,20.9 32.5,18.4 		"/>
		<polygon class="st3" points="28.5,8 29.4,7.5 27.7,4.9 26.9,5.5 28.5,8 		"/>
		<polygon class="st3" points="31.8,22.2 30.9,21.6 29.3,24.1 30.2,24.7 31.8,22.2 		"/>
		<polygon class="st3" points="9.1,20.9 10,20.4 8.3,17.8 7.4,18.4 9.1,20.9 		"/>
		<polygon class="st3" points="31,6.4 31.9,5.8 30.3,3.3 29.4,3.9 31,6.4 		"/>
		<polygon class="st3" points="29.3,20.5 28.4,20 26.7,22.5 27.6,23.1 29.3,20.5 		"/>
		<polygon class="st3" points="30.6,21.4 29.7,20.8 28,23.3 28.9,23.9 30.6,21.4 		"/>
		<polygon class="st3" points="10.6,3.9 7,9.4 6.2,8.8 9.7,3.3 10.6,3.9 		"/>
		<polygon class="st3" points="12.3,23.1 8.7,17.6 9.6,17 13.1,22.5 12.3,23.1 		"/>
	</g>
</g>
</svg>
